<?xml version="1.0" encoding="UTF-8"?>
<svg id="_レイヤー_1" data-name="レイヤー_1" xmlns="http://www.w3.org/2000/svg" version="1.1" viewBox="0 0 595.3 841.9">
  <!-- Generator: Adobe Illustrator 29.1.0, SVG Export Plug-In . SVG Version: 2.1.0 Build 142)  -->
  <defs>
    <style>
      .st0 {
        fill: #5e6095;
      }
    </style>
  </defs>
  <path class="st0" d="M182.7,283.6c-2.2-88.4-3.6-90.2-74-92.9v-2.8c70.5-2.7,71.9-4.4,74-92.9h2.8c2.2,88.4,3.6,90.2,74,92.9v2.8c-70.5,2.7-71.9,4.4-74,92.9h-2.8ZM135.4,189.3c37.4,3.1,45.8,12.1,48.7,56.2,2.9-44.1,11.3-53.1,48.7-56.2-37.4-3.1-45.8-12.1-48.7-56.2-2.9,44.1-11.3,53.1-48.7,56.2Z"/>
  <g>
    <path class="st0" d="M313.3,270.1c-39.3,1.7-40.3,3.1-41.5,59.2-1.2-56.1-2.2-57.5-41.5-59.2,39.3-1.7,40.3-3.1,41.5-59.2,1.2,56.1,2.2,57.5,41.5,59.2Z"/>
    <path class="st0" d="M273.2,329.4h-2.8c-.6-27.4-1.1-42-6.2-49.2-4.9-7-14.5-7.8-33.9-8.6v-2.8c19.4-.9,29-1.6,33.9-8.6,5.1-7.2,5.6-21.9,6.2-49.2h2.8c.6,27.4,1.1,42,6.2,49.2,4.9,7,14.5,7.8,33.9,8.6v2.8c-19.4.9-29,1.6-33.9,8.6-5.1,7.2-5.6,21.9-6.2,49.2ZM249.5,270.1c8.2,1.2,13.5,3.4,17,8.4,2.9,4.1,4.4,9.9,5.3,18.4.9-8.6,2.4-14.3,5.3-18.4,3.5-5,8.8-7.2,17-8.4-8.2-1.2-13.5-3.4-17-8.4-2.9-4.1-4.4-9.9-5.3-18.4-.9,8.6-2.4,14.3-5.3,18.4-3.5,5-8.8,7.2-17,8.4Z"/>
  </g>
</svg>