<?xml version="1.0" encoding="UTF-8"?>
<svg id="_レイヤー_1" xmlns="http://www.w3.org/2000/svg" version="1.1" viewBox="0 0 24 24">
  <!-- Generator: Adobe Illustrator 29.3.1, SVG Export Plug-In . SVG Version: 2.1.0 Build 151)  -->
  <defs>
    <style>
      .st0 {
        fill: #f36daf;
      }
    </style>
  </defs>
  <polygon class="st0" points="15.2 4.8 14.4 4.8 14.4 5.6 13.6 5.6 13.6 6.4 12.8 6.4 12.8 7.2 12 7.2 12 8 11.2 8 11.2 8.8 10.4 8.8 10.4 9.6 9.6 9.6 9.6 10.4 8.8 10.4 8.8 11.2 8 11.2 8 12 8 12.8 8.8 12.8 8.8 13.6 9.6 13.6 9.6 14.4 10.4 14.4 10.4 15.2 11.2 15.2 11.2 16 12 16 12 16.8 12.8 16.8 12.8 17.6 13.6 17.6 13.6 18.4 14.4 18.4 14.4 19.2 15.2 19.2 16 19.2 16 18.4 16 17.6 16 16.8 16 16 16 15.2 16 14.4 16 13.6 16 12.8 16 12 16 11.2 16 10.4 16 9.6 16 8.8 16 8 16 7.2 16 6.4 16 5.6 16 4.8 15.2 4.8"/>
</svg>