<?xml version="1.0" encoding="UTF-8"?>
<svg id="_レイヤー_1" xmlns="http://www.w3.org/2000/svg" version="1.1" viewBox="0 0 24 24">
  <!-- Generator: Adobe Illustrator 29.3.1, SVG Export Plug-In . SVG Version: 2.1.0 Build 151)  -->
  <defs>
    <style>
      .st0 {
        fill: gray;
      }
    </style>
  </defs>
  <polygon class="st0" points="14.8 5.2 14 5.2 14 6 13.2 6 13.2 6.8 12.4 6.8 12.4 7.6 11.6 7.6 11.6 8.4 10.8 8.4 10.8 9.2 10 9.2 10 10 9.2 10 9.2 10.8 8.4 10.8 8.4 11.6 8.4 12.4 8.4 13.2 9.2 13.2 9.2 14 10 14 10 14.8 10.8 14.8 10.8 15.6 11.6 15.6 11.6 16.4 12.4 16.4 12.4 17.2 13.2 17.2 13.2 18 14 18 14 18.8 14.8 18.8 15.6 18.8 15.6 18 15.6 17.2 14.8 17.2 14.8 16.4 14 16.4 14 15.6 13.2 15.6 13.2 14.8 12.4 14.8 12.4 14 11.6 14 11.6 13.2 10.8 13.2 10.8 12.4 10 12.4 10 11.6 10.8 11.6 10.8 10.8 11.6 10.8 11.6 10 12.4 10 12.4 9.2 13.2 9.2 13.2 8.4 14 8.4 14 7.6 14.8 7.6 14.8 6.8 15.6 6.8 15.6 6 15.6 5.2 14.8 5.2"/>
</svg>