<?xml version="1.0" encoding="UTF-8"?>
<svg id="_レイヤー_1" data-name=" レイヤー 1" xmlns="http://www.w3.org/2000/svg" viewBox="0 0 24.03 24.03">
  <defs>
    <style>
      .cls-1 {
        fill: none;
      }

      .cls-2 {
        fill: #62639c;
      }
    </style>
  </defs>
  <g>
    <rect class="cls-2" x="18.4" y="19.62" width=".8" height=".8"/>
    <rect class="cls-2" x="17.6" y="19.62" width=".8" height=".8"/>
    <rect class="cls-2" x="16.8" y="19.62" width=".8" height=".8"/>
    <rect class="cls-2" x="16" y="19.62" width=".8" height=".8"/>
    <rect class="cls-2" x="15.2" y="19.62" width=".8" height=".8"/>
    <rect class="cls-2" x="14.4" y="19.62" width=".8" height=".8"/>
    <rect class="cls-2" x="13.6" y="19.62" width=".8" height=".8"/>
    <rect class="cls-2" x="12.8" y="19.62" width=".8" height=".8"/>
    <rect class="cls-2" x="12" y="19.62" width=".8" height=".8"/>
    <rect class="cls-2" x="11.2" y="19.62" width=".8" height=".8"/>
    <rect class="cls-2" x="10.4" y="19.62" width=".8" height=".8"/>
    <rect class="cls-2" x="9.6" y="19.62" width=".8" height=".8"/>
    <rect class="cls-2" x="8.8" y="19.62" width=".8" height=".8"/>
    <rect class="cls-2" x="8" y="19.62" width=".8" height=".8"/>
    <rect class="cls-2" x="7.2" y="19.62" width=".8" height=".8"/>
    <rect class="cls-2" x="6.4" y="19.62" width=".8" height=".8"/>
    <rect class="cls-2" x="5.6" y="19.62" width=".8" height=".8"/>
    <rect class="cls-2" x="4.8" y="19.62" width=".8" height=".8"/>
    <rect class="cls-2" x="20" y="18.82" width=".8" height=".8"/>
    <rect class="cls-2" x="19.2" y="18.82" width=".8" height=".8"/>
    <rect class="cls-2" x="18.4" y="18.82" width=".8" height=".8"/>
    <rect class="cls-2" x="17.6" y="18.82" width=".8" height=".8"/>
    <rect class="cls-2" x="16.8" y="18.82" width=".8" height=".8"/>
    <rect class="cls-2" x="16" y="18.82" width=".8" height=".8"/>
    <rect class="cls-2" x="15.2" y="18.82" width=".8" height=".8"/>
    <rect class="cls-2" x="14.4" y="18.82" width=".8" height=".8"/>
    <rect class="cls-2" x="13.6" y="18.82" width=".8" height=".8"/>
    <rect class="cls-2" x="12.8" y="18.82" width=".8" height=".8"/>
    <rect class="cls-2" x="12" y="18.82" width=".8" height=".8"/>
    <rect class="cls-2" x="11.2" y="18.82" width=".8" height=".8"/>
    <rect class="cls-2" x="10.4" y="18.82" width=".8" height=".8"/>
    <rect class="cls-2" x="9.6" y="18.82" width=".8" height=".8"/>
    <rect class="cls-2" x="8.8" y="18.82" width=".8" height=".8"/>
    <rect class="cls-2" x="8" y="18.82" width=".8" height=".8"/>
    <rect class="cls-2" x="7.2" y="18.82" width=".8" height=".8"/>
    <rect class="cls-2" x="6.4" y="18.82" width=".8" height=".8"/>
    <rect class="cls-2" x="5.6" y="18.82" width=".8" height=".8"/>
    <rect class="cls-2" x="4.8" y="18.82" width=".8" height=".8"/>
    <rect class="cls-2" x="4" y="18.82" width=".8" height=".8"/>
    <rect class="cls-2" x="3.2" y="18.82" width=".8" height=".8"/>
    <rect class="cls-2" x="20.8" y="18.02" width=".8" height=".8"/>
    <rect class="cls-2" x="20" y="18.02" width=".8" height=".8"/>
    <rect class="cls-2" x="19.2" y="18.02" width=".8" height=".8"/>
    <rect class="cls-2" x="18.4" y="18.02" width=".8" height=".8"/>
    <rect class="cls-2" x="17.6" y="18.02" width=".8" height=".8"/>
    <rect class="cls-2" x="16.8" y="18.02" width=".8" height=".8"/>
    <rect class="cls-2" x="16" y="18.02" width=".8" height=".8"/>
    <rect class="cls-2" x="15.2" y="18.02" width=".8" height=".8"/>
    <rect class="cls-2" x="14.4" y="18.02" width=".8" height=".8"/>
    <rect class="cls-2" x="13.6" y="18.02" width=".8" height=".8"/>
    <rect class="cls-2" x="12.8" y="18.02" width=".8" height=".8"/>
    <rect class="cls-2" x="12" y="18.02" width=".8" height=".8"/>
    <rect class="cls-2" x="11.2" y="18.02" width=".8" height=".8"/>
    <rect class="cls-2" x="10.4" y="18.02" width=".8" height=".8"/>
    <rect class="cls-2" x="9.6" y="18.02" width=".8" height=".8"/>
    <rect class="cls-2" x="8.8" y="18.02" width=".8" height=".8"/>
    <rect class="cls-2" x="8" y="18.02" width=".8" height=".8"/>
    <rect class="cls-2" x="7.2" y="18.02" width=".8" height=".8"/>
    <rect class="cls-2" x="6.4" y="18.02" width=".8" height=".8"/>
    <rect class="cls-2" x="5.6" y="18.02" width=".8" height=".8"/>
    <rect class="cls-2" x="4.8" y="18.02" width=".8" height=".8"/>
    <rect class="cls-2" x="4" y="18.02" width=".8" height=".8"/>
    <rect class="cls-2" x="3.2" y="18.02" width=".8" height=".8"/>
    <rect class="cls-2" x="2.4" y="18.02" width=".8" height=".8"/>
    <rect class="cls-2" x="21.6" y="17.22" width=".8" height=".8"/>
    <rect class="cls-2" x="20.8" y="17.22" width=".8" height=".8"/>
    <rect class="cls-2" x="20" y="17.22" width=".8" height=".8"/>
    <rect class="cls-2" x="19.2" y="17.22" width=".8" height=".8"/>
    <rect class="cls-2" x="18.4" y="17.22" width=".8" height=".8"/>
    <rect class="cls-2" x="17.6" y="17.22" width=".8" height=".8"/>
    <rect class="cls-2" x="16.8" y="17.22" width=".8" height=".8"/>
    <rect class="cls-2" x="16" y="17.22" width=".8" height=".8"/>
    <rect class="cls-2" x="15.2" y="17.22" width=".8" height=".8"/>
    <rect class="cls-2" x="14.4" y="17.22" width=".8" height=".8"/>
    <rect class="cls-2" x="13.6" y="17.22" width=".8" height=".8"/>
    <rect class="cls-2" x="12.8" y="17.22" width=".8" height=".8"/>
    <rect class="cls-2" x="12" y="17.22" width=".8" height=".8"/>
    <rect class="cls-2" x="11.2" y="17.22" width=".8" height=".8"/>
    <rect class="cls-2" x="10.4" y="17.22" width=".8" height=".8"/>
    <rect class="cls-2" x="9.6" y="17.22" width=".8" height=".8"/>
    <rect class="cls-2" x="8.8" y="17.22" width=".8" height=".8"/>
    <rect class="cls-2" x="8" y="17.22" width=".8" height=".8"/>
    <rect class="cls-2" x="7.2" y="17.22" width=".8" height=".8"/>
    <rect class="cls-2" x="6.4" y="17.22" width=".8" height=".8"/>
    <rect class="cls-2" x="5.6" y="17.22" width=".8" height=".8"/>
    <rect class="cls-2" x="4.8" y="17.22" width=".8" height=".8"/>
    <rect class="cls-2" x="4" y="17.22" width=".8" height=".8"/>
    <rect class="cls-2" x="3.2" y="17.22" width=".8" height=".8"/>
    <rect class="cls-2" x="2.4" y="17.22" width=".8" height=".8"/>
    <rect class="cls-2" x="1.6" y="17.22" width=".8" height=".8"/>
    <rect class="cls-2" x="21.6" y="16.42" width=".8" height=".8"/>
    <rect class="cls-2" x="20.8" y="16.42" width=".8" height=".8"/>
    <rect class="cls-2" x="20" y="16.42" width=".8" height=".8"/>
    <rect class="cls-2" x="3.2" y="16.42" width=".8" height=".8"/>
    <rect class="cls-2" x="2.4" y="16.42" width=".8" height=".8"/>
    <rect class="cls-2" x="1.6" y="16.42" width=".8" height=".8"/>
    <rect class="cls-2" x="21.6" y="15.62" width=".8" height=".8"/>
    <rect class="cls-2" x="20.8" y="15.62" width=".8" height=".8"/>
    <rect class="cls-2" x="20" y="15.62" width=".8" height=".8"/>
    <rect class="cls-2" x="3.2" y="15.62" width=".8" height=".8"/>
    <rect class="cls-2" x="2.4" y="15.62" width=".8" height=".8"/>
    <rect class="cls-2" x="1.6" y="15.62" width=".8" height=".8"/>
    <rect class="cls-2" x="21.6" y="14.82" width=".8" height=".8"/>
    <rect class="cls-2" x="20.8" y="14.82" width=".8" height=".8"/>
    <rect class="cls-2" x="20" y="14.82" width=".8" height=".8"/>
    <rect class="cls-2" x="3.2" y="14.82" width=".8" height=".8"/>
    <rect class="cls-2" x="2.4" y="14.82" width=".8" height=".8"/>
    <rect class="cls-2" x="1.6" y="14.82" width=".8" height=".8"/>
    <rect class="cls-2" x="21.6" y="14.02" width=".8" height=".8"/>
    <rect class="cls-2" x="20.8" y="14.02" width=".8" height=".8"/>
    <rect class="cls-2" x="20" y="14.02" width=".8" height=".8"/>
    <rect class="cls-2" x="3.2" y="14.02" width=".8" height=".8"/>
    <rect class="cls-2" x="2.4" y="14.02" width=".8" height=".8"/>
    <rect class="cls-2" x="1.6" y="14.02" width=".8" height=".8"/>
    <rect class="cls-2" x="21.6" y="13.22" width=".8" height=".8"/>
    <rect class="cls-2" x="20.8" y="13.22" width=".8" height=".8"/>
    <rect class="cls-2" x="20" y="13.22" width=".8" height=".8"/>
    <rect class="cls-2" x="12" y="13.22" width=".8" height=".8"/>
    <rect class="cls-2" x="11.2" y="13.22" width=".8" height=".8"/>
    <rect class="cls-2" x="3.2" y="13.22" width=".8" height=".8"/>
    <rect class="cls-2" x="2.4" y="13.22" width=".8" height=".8"/>
    <rect class="cls-2" x="1.6" y="13.22" width=".8" height=".8"/>
    <rect class="cls-2" x="21.6" y="12.42" width=".8" height=".8"/>
    <rect class="cls-2" x="20.8" y="12.42" width=".8" height=".8"/>
    <rect class="cls-2" x="20" y="12.42" width=".8" height=".8"/>
    <rect class="cls-2" x="13.6" y="12.42" width=".8" height=".8"/>
    <rect class="cls-2" x="12.8" y="12.42" width=".8" height=".8"/>
    <rect class="cls-2" x="12" y="12.42" width=".8" height=".8"/>
    <rect class="cls-2" x="11.2" y="12.42" width=".8" height=".8"/>
    <rect class="cls-2" x="10.4" y="12.42" width=".8" height=".8"/>
    <rect class="cls-2" x="9.6" y="12.42" width=".8" height=".8"/>
    <rect class="cls-2" x="3.2" y="12.42" width=".8" height=".8"/>
    <rect class="cls-2" x="2.4" y="12.42" width=".8" height=".8"/>
    <rect class="cls-2" x="1.6" y="12.42" width=".8" height=".8"/>
    <rect class="cls-2" x="21.6" y="11.62" width=".8" height=".8"/>
    <rect class="cls-2" x="20.8" y="11.62" width=".8" height=".8"/>
    <rect class="cls-2" x="20" y="11.62" width=".8" height=".8"/>
    <rect class="cls-2" x="14.4" y="11.62" width=".8" height=".8"/>
    <rect class="cls-2" x="13.6" y="11.62" width=".8" height=".8"/>
    <rect class="cls-2" x="12.8" y="11.62" width=".8" height=".8"/>
    <rect class="cls-2" x="12" y="11.62" width=".8" height=".8"/>
    <rect class="cls-2" x="11.2" y="11.62" width=".8" height=".8"/>
    <rect class="cls-2" x="10.4" y="11.62" width=".8" height=".8"/>
    <rect class="cls-2" x="9.6" y="11.62" width=".8" height=".8"/>
    <rect class="cls-2" x="8.8" y="11.62" width=".8" height=".8"/>
    <rect class="cls-2" x="3.2" y="11.62" width=".8" height=".8"/>
    <rect class="cls-2" x="2.4" y="11.62" width=".8" height=".8"/>
    <rect class="cls-2" x="1.6" y="11.62" width=".8" height=".8"/>
    <rect class="cls-2" x="21.6" y="10.82" width=".8" height=".8"/>
    <rect class="cls-2" x="20.8" y="10.82" width=".8" height=".8"/>
    <rect class="cls-2" x="20" y="10.82" width=".8" height=".8"/>
    <rect class="cls-2" x="16" y="10.82" width=".8" height=".8"/>
    <rect class="cls-2" x="15.2" y="10.82" width=".8" height=".8"/>
    <rect class="cls-2" x="14.4" y="10.82" width=".8" height=".8"/>
    <rect class="cls-2" x="13.6" y="10.82" width=".8" height=".8"/>
    <rect class="cls-2" x="12.8" y="10.82" width=".8" height=".8"/>
    <rect class="cls-2" x="12" y="10.82" width=".8" height=".8"/>
    <rect class="cls-2" x="11.2" y="10.82" width=".8" height=".8"/>
    <rect class="cls-2" x="10.4" y="10.82" width=".8" height=".8"/>
    <rect class="cls-2" x="9.6" y="10.82" width=".8" height=".8"/>
    <rect class="cls-2" x="8.8" y="10.82" width=".8" height=".8"/>
    <rect class="cls-2" x="8" y="10.82" width=".8" height=".8"/>
    <rect class="cls-2" x="3.2" y="10.82" width=".8" height=".8"/>
    <rect class="cls-2" x="2.4" y="10.82" width=".8" height=".8"/>
    <rect class="cls-2" x="1.6" y="10.82" width=".8" height=".8"/>
    <rect class="cls-2" x="21.6" y="10.02" width=".8" height=".8"/>
    <rect class="cls-2" x="20.8" y="10.02" width=".8" height=".8"/>
    <rect class="cls-2" x="20" y="10.02" width=".8" height=".8"/>
    <rect class="cls-2" x="17.6" y="10.02" width=".8" height=".8"/>
    <rect class="cls-2" x="16.8" y="10.02" width=".8" height=".8"/>
    <rect class="cls-2" x="16" y="10.02" width=".8" height=".8"/>
    <rect class="cls-2" x="15.2" y="10.02" width=".8" height=".8"/>
    <rect class="cls-2" x="14.4" y="10.02" width=".8" height=".8"/>
    <rect class="cls-2" x="13.6" y="10.02" width=".8" height=".8"/>
    <rect class="cls-2" x="10.4" y="10.02" width=".8" height=".8"/>
    <rect class="cls-2" x="9.6" y="10.02" width=".8" height=".8"/>
    <rect class="cls-2" x="8.8" y="10.02" width=".8" height=".8"/>
    <rect class="cls-2" x="8" y="10.02" width=".8" height=".8"/>
    <rect class="cls-2" x="7.2" y="10.02" width=".8" height=".8"/>
    <rect class="cls-2" x="6.4" y="10.02" width=".8" height=".8"/>
    <rect class="cls-2" x="3.2" y="10.02" width=".8" height=".8"/>
    <rect class="cls-2" x="2.4" y="10.02" width=".8" height=".8"/>
    <rect class="cls-2" x="1.6" y="10.02" width=".8" height=".8"/>
    <rect class="cls-2" x="21.6" y="9.22" width=".8" height=".8"/>
    <rect class="cls-2" x="20.8" y="9.22" width=".8" height=".8"/>
    <rect class="cls-2" x="20" y="9.22" width=".8" height=".8"/>
    <rect class="cls-2" x="18.4" y="9.22" width=".8" height=".8"/>
    <rect class="cls-2" x="17.6" y="9.22" width=".8" height=".8"/>
    <rect class="cls-2" x="16.8" y="9.22" width=".8" height=".8"/>
    <rect class="cls-2" x="16" y="9.22" width=".8" height=".8"/>
    <rect class="cls-2" x="15.2" y="9.22" width=".8" height=".8"/>
    <rect class="cls-2" x="14.4" y="9.22" width=".8" height=".8"/>
    <rect class="cls-2" x="8.8" y="9.22" width=".8" height=".8"/>
    <rect class="cls-2" x="8" y="9.22" width=".8" height=".8"/>
    <rect class="cls-2" x="7.2" y="9.22" width=".8" height=".8"/>
    <rect class="cls-2" x="6.4" y="9.22" width=".8" height=".8"/>
    <rect class="cls-2" x="5.6" y="9.22" width=".8" height=".8"/>
    <rect class="cls-2" x="4.8" y="9.22" width=".8" height=".8"/>
    <rect class="cls-2" x="3.2" y="9.22" width=".8" height=".8"/>
    <rect class="cls-2" x="2.4" y="9.22" width=".8" height=".8"/>
    <rect class="cls-2" x="1.6" y="9.22" width=".8" height=".8"/>
    <rect class="cls-2" x="21.6" y="8.42" width=".8" height=".8"/>
    <rect class="cls-2" x="20.8" y="8.42" width=".8" height=".8"/>
    <rect class="cls-2" x="20" y="8.42" width=".8" height=".8"/>
    <rect class="cls-2" x="19.2" y="8.42" width=".8" height=".8"/>
    <rect class="cls-2" x="18.4" y="8.42" width=".8" height=".8"/>
    <rect class="cls-2" x="17.6" y="8.42" width=".8" height=".8"/>
    <rect class="cls-2" x="16.8" y="8.42" width=".8" height=".8"/>
    <rect class="cls-2" x="16" y="8.42" width=".8" height=".8"/>
    <rect class="cls-2" x="15.2" y="8.42" width=".8" height=".8"/>
    <rect class="cls-2" x="8" y="8.42" width=".8" height=".8"/>
    <rect class="cls-2" x="7.2" y="8.42" width=".8" height=".8"/>
    <rect class="cls-2" x="6.4" y="8.42" width=".8" height=".8"/>
    <rect class="cls-2" x="5.6" y="8.42" width=".8" height=".8"/>
    <rect class="cls-2" x="4.8" y="8.42" width=".8" height=".8"/>
    <rect class="cls-2" x="4" y="8.42" width=".8" height=".8"/>
    <rect class="cls-2" x="3.2" y="8.42" width=".8" height=".8"/>
    <rect class="cls-2" x="2.4" y="8.42" width=".8" height=".8"/>
    <rect class="cls-2" x="1.6" y="8.42" width=".8" height=".8"/>
    <rect class="cls-2" x="21.6" y="7.62" width=".8" height=".8"/>
    <rect class="cls-2" x="20.8" y="7.62" width=".8" height=".8"/>
    <rect class="cls-2" x="20" y="7.62" width=".8" height=".8"/>
    <rect class="cls-2" x="19.2" y="7.62" width=".8" height=".8"/>
    <rect class="cls-2" x="18.4" y="7.62" width=".8" height=".8"/>
    <rect class="cls-2" x="17.6" y="7.62" width=".8" height=".8"/>
    <rect class="cls-2" x="16.8" y="7.62" width=".8" height=".8"/>
    <rect class="cls-2" x="6.4" y="7.62" width=".8" height=".8"/>
    <rect class="cls-2" x="5.6" y="7.62" width=".8" height=".8"/>
    <rect class="cls-2" x="4.8" y="7.62" width=".8" height=".8"/>
    <rect class="cls-2" x="4" y="7.62" width=".8" height=".8"/>
    <rect class="cls-2" x="3.2" y="7.62" width=".8" height=".8"/>
    <rect class="cls-2" x="2.4" y="7.62" width=".8" height=".8"/>
    <rect class="cls-2" x="1.6" y="7.62" width=".8" height=".8"/>
    <rect class="cls-2" x="21.6" y="6.82" width=".8" height=".8"/>
    <rect class="cls-2" x="20.8" y="6.82" width=".8" height=".8"/>
    <rect class="cls-2" x="20" y="6.82" width=".8" height=".8"/>
    <rect class="cls-2" x="19.2" y="6.82" width=".8" height=".8"/>
    <rect class="cls-2" x="18.4" y="6.82" width=".8" height=".8"/>
    <rect class="cls-2" x="5.6" y="6.82" width=".8" height=".8"/>
    <rect class="cls-2" x="4.8" y="6.82" width=".8" height=".8"/>
    <rect class="cls-2" x="4" y="6.82" width=".8" height=".8"/>
    <rect class="cls-2" x="3.2" y="6.82" width=".8" height=".8"/>
    <rect class="cls-2" x="2.4" y="6.82" width=".8" height=".8"/>
    <rect class="cls-2" x="1.6" y="6.82" width=".8" height=".8"/>
    <rect class="cls-2" x="21.6" y="6.02" width=".8" height=".8"/>
    <rect class="cls-2" x="20.8" y="6.02" width=".8" height=".8"/>
    <rect class="cls-2" x="20" y="6.02" width=".8" height=".8"/>
    <rect class="cls-2" x="19.2" y="6.02" width=".8" height=".8"/>
    <rect class="cls-2" x="4" y="6.02" width=".8" height=".8"/>
    <rect class="cls-2" x="3.2" y="6.02" width=".8" height=".8"/>
    <rect class="cls-2" x="2.4" y="6.02" width=".8" height=".8"/>
    <rect class="cls-2" x="1.6" y="6.02" width=".8" height=".8"/>
    <rect class="cls-2" x="21.6" y="5.22" width=".8" height=".8"/>
    <rect class="cls-2" x="20.8" y="5.22" width=".8" height=".8"/>
    <rect class="cls-2" x="20" y="5.22" width=".8" height=".8"/>
    <rect class="cls-2" x="19.2" y="5.22" width=".8" height=".8"/>
    <rect class="cls-2" x="18.4" y="5.22" width=".8" height=".8"/>
    <rect class="cls-2" x="17.6" y="5.22" width=".8" height=".8"/>
    <rect class="cls-2" x="16.8" y="5.22" width=".8" height=".8"/>
    <rect class="cls-2" x="16" y="5.22" width=".8" height=".8"/>
    <rect class="cls-2" x="15.2" y="5.22" width=".8" height=".8"/>
    <rect class="cls-2" x="14.4" y="5.22" width=".8" height=".8"/>
    <rect class="cls-2" x="13.6" y="5.22" width=".8" height=".8"/>
    <rect class="cls-2" x="12.8" y="5.22" width=".8" height=".8"/>
    <rect class="cls-2" x="12" y="5.22" width=".8" height=".8"/>
    <rect class="cls-2" x="11.2" y="5.22" width=".8" height=".8"/>
    <rect class="cls-2" x="10.4" y="5.22" width=".8" height=".8"/>
    <rect class="cls-2" x="9.6" y="5.22" width=".8" height=".8"/>
    <rect class="cls-2" x="8.8" y="5.22" width=".8" height=".8"/>
    <rect class="cls-2" x="8" y="5.22" width=".8" height=".8"/>
    <rect class="cls-2" x="7.2" y="5.22" width=".8" height=".8"/>
    <rect class="cls-2" x="6.4" y="5.22" width=".8" height=".8"/>
    <rect class="cls-2" x="5.6" y="5.22" width=".8" height=".8"/>
    <rect class="cls-2" x="4.8" y="5.22" width=".8" height=".8"/>
    <rect class="cls-2" x="4" y="5.22" width=".8" height=".8"/>
    <rect class="cls-2" x="3.2" y="5.22" width=".8" height=".8"/>
    <rect class="cls-2" x="2.4" y="5.22" width=".8" height=".8"/>
    <rect class="cls-2" x="1.6" y="5.22" width=".8" height=".8"/>
    <rect class="cls-2" x="20.8" y="4.42" width=".8" height=".8"/>
    <rect class="cls-2" x="20" y="4.42" width=".8" height=".8"/>
    <rect class="cls-2" x="19.2" y="4.42" width=".8" height=".8"/>
    <rect class="cls-2" x="18.4" y="4.42" width=".8" height=".8"/>
    <rect class="cls-2" x="17.6" y="4.42" width=".8" height=".8"/>
    <rect class="cls-2" x="16.8" y="4.42" width=".8" height=".8"/>
    <rect class="cls-2" x="16" y="4.42" width=".8" height=".8"/>
    <rect class="cls-2" x="15.2" y="4.42" width=".8" height=".8"/>
    <rect class="cls-2" x="14.4" y="4.42" width=".8" height=".8"/>
    <rect class="cls-2" x="13.6" y="4.42" width=".8" height=".8"/>
    <rect class="cls-2" x="12.8" y="4.42" width=".8" height=".8"/>
    <rect class="cls-2" x="12" y="4.42" width=".8" height=".8"/>
    <rect class="cls-2" x="11.2" y="4.42" width=".8" height=".8"/>
    <rect class="cls-2" x="10.4" y="4.42" width=".8" height=".8"/>
    <rect class="cls-2" x="9.6" y="4.42" width=".8" height=".8"/>
    <rect class="cls-2" x="8.8" y="4.42" width=".8" height=".8"/>
    <rect class="cls-2" x="8" y="4.42" width=".8" height=".8"/>
    <rect class="cls-2" x="7.2" y="4.42" width=".8" height=".8"/>
    <rect class="cls-2" x="6.4" y="4.42" width=".8" height=".8"/>
    <rect class="cls-2" x="5.6" y="4.42" width=".8" height=".8"/>
    <rect class="cls-2" x="4.8" y="4.42" width=".8" height=".8"/>
    <rect class="cls-2" x="4" y="4.42" width=".8" height=".8"/>
    <rect class="cls-2" x="3.2" y="4.42" width=".8" height=".8"/>
    <rect class="cls-2" x="2.4" y="4.42" width=".8" height=".8"/>
    <rect class="cls-2" x="20" y="3.62" width=".8" height=".8"/>
    <rect class="cls-2" x="19.2" y="3.62" width=".8" height=".8"/>
    <rect class="cls-2" x="18.4" y="3.62" width=".8" height=".8"/>
    <rect class="cls-2" x="17.6" y="3.62" width=".8" height=".8"/>
    <rect class="cls-2" x="16.8" y="3.62" width=".8" height=".8"/>
    <rect class="cls-2" x="16" y="3.62" width=".8" height=".8"/>
    <rect class="cls-2" x="15.2" y="3.62" width=".8" height=".8"/>
    <rect class="cls-2" x="14.4" y="3.62" width=".8" height=".8"/>
    <rect class="cls-2" x="13.6" y="3.62" width=".8" height=".8"/>
    <rect class="cls-2" x="12.8" y="3.62" width=".8" height=".8"/>
    <rect class="cls-2" x="12" y="3.62" width=".8" height=".8"/>
    <rect class="cls-2" x="11.2" y="3.62" width=".8" height=".8"/>
    <rect class="cls-2" x="10.4" y="3.62" width=".8" height=".8"/>
    <rect class="cls-2" x="9.6" y="3.62" width=".8" height=".8"/>
    <rect class="cls-2" x="8.8" y="3.62" width=".8" height=".8"/>
    <rect class="cls-2" x="8" y="3.62" width=".8" height=".8"/>
    <rect class="cls-2" x="7.2" y="3.62" width=".8" height=".8"/>
    <rect class="cls-2" x="6.4" y="3.62" width=".8" height=".8"/>
    <rect class="cls-2" x="5.6" y="3.62" width=".8" height=".8"/>
    <rect class="cls-2" x="4.8" y="3.62" width=".8" height=".8"/>
    <rect class="cls-2" x="4" y="3.62" width=".8" height=".8"/>
    <rect class="cls-2" x="3.2" y="3.62" width=".8" height=".8"/>
  </g>
  <rect class="cls-1" width="24.03" height="24.03"/>
</svg>