<?xml version="1.0" encoding="UTF-8"?>
<svg id="_レイヤー_1" data-name="レイヤー_1" xmlns="http://www.w3.org/2000/svg" version="1.1" viewBox="0 0 32 32">
  <!-- Generator: Adobe Illustrator 29.1.0, SVG Export Plug-In . SVG Version: 2.1.0 Build 142)  -->
  <defs>
    <style>
      .st0 {
        fill: #62639c;
      }
    </style>
  </defs>
  <polygon class="st0" points="28.8 19.9 27.7 19.9 26.7 19.9 25.6 19.9 24.5 19.9 23.5 19.9 22.4 19.9 21.3 19.9 21.3 21 21.3 22.1 21.3 23.2 22.4 23.2 23.5 23.2 24.5 23.2 24.5 24.3 23.5 24.3 23.5 25.4 22.4 25.4 22.4 26.5 21.3 26.5 20.3 26.5 20.3 27.6 20.3 28.7 20.3 29.8 21.3 29.8 22.4 29.8 23.5 29.8 23.5 28.7 24.5 28.7 24.5 27.6 24.5 26.5 25.6 26.5 26.7 26.5 26.7 27.6 26.7 28.7 27.7 28.7 28.8 28.7 28.8 27.6 29.9 27.6 29.9 26.5 29.9 25.4 29.9 24.3 29.9 23.2 29.9 22.1 29.9 21 28.8 21 28.8 19.9"/>
  <path class="st0" d="M28.8,7.8v-3.3H3.2v20.9h2.1v1.1h12.8v-1.1h1.1v-1.1h-1.1v-1.1H7.5v-1.1h-1.1v-9.9h1.1v1.1h1.1v1.1h1.1v1.1h3.2v1.1h2.1v1.1h2.1v-1.1h2.1v-1.1h3.2v-1.1h1.1v-1.1h1.1v-1.1h1.1v-1.1h1.1v6.6h2.1v-1.1h1.1V7.8h-1.1ZM23.5,8.9v1.1h-1.1v1.1h-2.1v1.1h-1.1v1.1h-2.1v1.1h-2.1v-1.1h-2.1v-1.1h-1.1v-1.1h-2.1v-1.1h-1.1v-1.1h-1.1v-2.2h17.1v2.2h-1.1Z"/>
</svg>