<?xml version="1.0" encoding="UTF-8"?>
<svg id="_レイヤー_1" data-name="レイヤー_1" xmlns="http://www.w3.org/2000/svg" version="1.1" viewBox="0 0 32 32">
  <!-- Generator: Adobe Illustrator 29.1.0, SVG Export Plug-In . SVG Version: 2.1.0 Build 142)  -->
  <defs>
    <style>
      .st0 {
        fill: #171717;
      }
    </style>
  </defs>
  <path class="st0" d="M23.5,5.3v-2.1h-14.9v1.1h-1.1v23.5h1.1v1.1h5.3v-1.1h2.1v-2.1h1.1v-4.3h5.3v-1.1h1.1v-2.1h1.1v-5.3h-1.1v-3.2h1.1v-4.3h-1.1ZM8.5,7.5h1.1v-1.1h1.1v-1.1h4.3v5.3h-4.3v-1.1h-1.1v-1.1h-1.1v-1.1ZM8.5,16v-1.1h1.1v-1.1h1.1v-1.1h4.3v6.4h-4.3v-1.1h-1.1v-1.1h-1.1v-1.1ZM8.5,23.5h1.1v-1.1h1.1v-1.1h4.3v3.2h-1.1v1.1h-1.1v1.1h-2.1v-1.1h-1.1v-1.1h-1.1v-1.1ZM23.5,16v1.1h-1.1v1.1h-1.1v1.1h-2.1v-1.1h-1.1v-1.1h-1.1v-2.1h1.1v-1.1h1.1v-1.1h2.1v1.1h1.1v1.1h1.1v1.1ZM23.5,8.5h-1.1v1.1h-1.1v1.1h-4.3v-5.3h4.3v1.1h1.1v1.1h1.1v1.1Z"/>
</svg>