<?xml version="1.0" encoding="UTF-8"?>
<svg id="_レイヤー_1" xmlns="http://www.w3.org/2000/svg" version="1.1" viewBox="0 0 32 32">
  <!-- Generator: Adobe Illustrator 29.1.0, SVG Export Plug-In . SVG Version: 2.1.0 Build 142)  -->
  <defs>
    <style>
      .st0 {
        fill: #fefefe;
      }
    </style>
  </defs>
  <path class="st0" d="M26.7,8.5v-3.1h0v-2.2h-1.1v-1.1h-2.1v1.1h-3.2v1.1h-8.5v-1.1h-3.2v-1.1h-2.2v1.1h-1.1v2.1h0v3.2h-1v3.2h0v3.2h0v3.3h1v1h1.1v1.1h1.1v1h-1.1v-1H2.1v1h0v1.1h1.1v1.1h1.1v1.1h1v1h1.1v1.1h1.1v1.1h2.1v1h1.1v1.1h10.7v-1.1h1v-1h0v-3.2h0v-2.2h1.1v-1h1.1v-1.1h1v-1.1h1.1v-1h1.1v-3.2h0v-3.2h0v-3.3h-1.1ZM8.5,22.4h1.1v1.1h-2.1v-1.1h1Z"/>
</svg>