<?xml version="1.0" encoding="UTF-8"?>
<svg id="_レイヤー_1" data-name="レイヤー_1" xmlns="http://www.w3.org/2000/svg" version="1.1" viewBox="0 0 32 32">
  <!-- Generator: Adobe Illustrator 29.1.0, SVG Export Plug-In . SVG Version: 2.1.0 Build 142)  -->
  <defs>
    <style>
      .st0 {
        fill: #fafafa;
      }
    </style>
  </defs>
  <path class="st0" d="M21.3,12.8v-1.1h-1.1v-1.1h-2.1v-1.1h-4.3v1.1h-2.1v1.1h-1.1v2.1h-1.1v4.3h1.1v2.1h1.1v1.1h2.1v1.1h4.3v-1.1h2.1v-1.1h1.1v-2.1h1.1v-4.3h-1.1v-1.1ZM18.1,14.9v3.2h-4.3v-4.3h4.3v1.1Z"/>
  <path class="st0" d="M26.7,7.5v-1.1h-1.1v-1.1h-1.1v-1.1H7.5v1.1h-1.1v1.1h-1.1v1.1h-1.1v17.1h1.1v1.1h1.1v1.1h1.1v1.1h17.1v-1.1h1.1v-1.1h1.1v-1.1h1.1V7.5h-1.1ZM23.5,23.5v1.1h-14.9v-1.1h-1.1V7.5h13.9v1.1h-1.1v1.1h1.1v1.1h2.1v-2.1h1.1v14.9h-1.1Z"/>
</svg>