<?xml version="1.0" encoding="UTF-8"?>
<svg id="_レイヤー_1" data-name="レイヤー_1" xmlns="http://www.w3.org/2000/svg" version="1.1" viewBox="0 0 80 80">
  <!-- Generator: Adobe Illustrator 29.1.0, SVG Export Plug-In . SVG Version: 2.1.0 Build 142)  -->
  <defs>
    <style>
      .st0 {
        fill: #171717;
      }
    </style>
  </defs>
  <path class="st0" d="M66.7,16v-5.3H13.3v2.7h-2.7v53.3h5.3v2.7h48v-2.7h2.7v-2.7h2.7V16h-2.7ZM64,18.7v5.3h-8v-8h8v2.7ZM64,32v5.3h-8v-8h8v2.7ZM64,45.3v5.3h-8v-8h8v2.7ZM16,48v-5.3h8v8h-8v-2.7ZM16,34.7v-5.3h8v8h-8v-2.7ZM16,21.3v-5.3h8v8h-8v-2.7ZM50.7,18.7v18.7h-21.3v-21.3h21.3v2.7ZM29.3,61.3v-18.7h21.3v21.3h-21.3v-2.7ZM16,61.3v-5.3h8v8h-8v-2.7ZM61.3,64h-5.3v-8h8v8h-2.7Z"/>
</svg>