<?xml version="1.0" encoding="UTF-8"?>
<svg id="_レイヤー_1" data-name="レイヤー_1" xmlns="http://www.w3.org/2000/svg" version="1.1" viewBox="0 0 80 80">
  <!-- Generator: Adobe Illustrator 29.1.0, SVG Export Plug-In . SVG Version: 2.1.0 Build 142)  -->
  <defs>
    <style>
      .st0 {
        fill: #171717;
      }
    </style>
  </defs>
  <polygon class="st0" points="58.7 37.3 61.3 37.3 61.3 34.7 61.3 32 58.7 32 58.7 29.3 56 29.3 53.3 29.3 50.7 29.3 50.7 32 48 32 48 34.7 48 37.3 50.7 37.3 50.7 40 53.3 40 56 40 58.7 40 58.7 37.3"/>
  <polygon class="st0" points="32 29.3 29.3 29.3 26.7 29.3 24 29.3 24 32 21.3 32 21.3 34.7 21.3 37.3 24 37.3 24 40 26.7 40 29.3 40 32 40 34.7 40 34.7 37.3 34.7 34.7 34.7 32 32 32 32 29.3"/>
  <polygon class="st0" points="48 26.7 48 24 48 21.3 45.3 21.3 45.3 18.7 42.7 18.7 40 18.7 37.3 18.7 37.3 21.3 34.7 21.3 34.7 24 34.7 26.7 34.7 29.3 37.3 29.3 37.3 32 40 32 42.7 32 45.3 32 45.3 29.3 48 29.3 48 26.7"/>
  <path class="st0" d="M69.3,24v-2.7h-2.7v-2.7h-2.7v-2.7h-2.7v-2.7h-2.7v-2.7h-5.3v-2.7h-26.7v2.7h-5.3v2.7h-2.7v2.7h-2.7v2.7h-2.7v2.7h-2.7v5.3h-2.7v26.7h2.7v5.3h2.7v2.7h2.7v2.7h2.7v2.7h5.3v2.7h2.7v2.7h18.7v-2.7h2.7v-8h-2.7v-2.7h-2.7v-5.3h16v-2.7h8v-2.7h2.7v-2.7h2.7v-21.3h-2.7ZM56,48h-16v2.7h-2.7v10.7h2.7v2.7h2.7v2.7h-10.7v-2.7h-8v-5.3h-5.3v-2.7h-2.7v-8h-2.7v-16h2.7v-8h2.7v-2.7h2.7v-2.7h2.7v-2.7h8v-2.7h16v2.7h8v2.7h2.7v2.7h2.7v2.7h2.7v5.3h2.7v13.3h-2.7v2.7h-5.3v2.7h-2.7Z"/>
</svg>