<?xml version="1.0" encoding="UTF-8"?>
<svg id="_レイヤー_1" data-name="レイヤー_1" xmlns="http://www.w3.org/2000/svg" version="1.1" viewBox="0 0 32 32">
  <!-- Generator: Adobe Illustrator 29.1.0, SVG Export Plug-In . SVG Version: 2.1.0 Build 142)  -->
  <defs>
    <style>
      .st0 {
        fill: #62639c;
      }
    </style>
  </defs>
  <polygon class="st0" points="20.3 9.6 20.3 8.5 19.2 8.5 18.1 8.5 18.1 7.5 17.1 7.5 16 7.5 14.9 7.5 13.9 7.5 13.9 8.5 12.8 8.5 11.7 8.5 11.7 9.6 11.7 10.7 10.7 10.7 10.7 11.7 10.7 12.8 10.7 13.9 10.7 14.9 10.7 16 11.7 16 11.7 17.1 12.8 17.1 12.8 18.1 13.9 18.1 14.9 18.1 16 18.1 17.1 18.1 18.1 18.1 19.2 18.1 19.2 17.1 20.3 17.1 20.3 16 21.3 16 21.3 14.9 21.3 13.9 21.3 12.8 21.3 11.7 21.3 10.7 20.3 10.7 20.3 9.6"/>
  <path class="st0" d="M27.7,4.3v-1.1H4.3v1.1h-1.1v23.5h1.1v1.1h23.5v-1.1h1.1V4.3h-1.1ZM26.7,7.5v18.1h-1.1v1.1h-1.1v-3.2h-1.1v-2.1h-2.1v-1.1h-10.7v1.1h-2.1v1.1h-1.1v4.3h-1.1v-1.1h-1.1V6.4h1.1v-1.1h19.2v1.1h1.1v1.1Z"/>
</svg>