<?xml version="1.0" encoding="UTF-8"?>
<svg id="_レイヤー_1" data-name="レイヤー_1" xmlns="http://www.w3.org/2000/svg" version="1.1" viewBox="0 0 80 80">
  <!-- Generator: Adobe Illustrator 29.1.0, SVG Export Plug-In . SVG Version: 2.1.0 Build 142)  -->
  <defs>
    <style>
      .st0 {
        fill: #171717;
      }
    </style>
  </defs>
  <path class="st0" d="M69.3,34.7H8v16h2.7v5.3h2.7v2.7h2.7v2.7h2.7v5.3h2.7v5.3h37.3v-8h2.7v-2.7h2.7v-2.7h2.7v-5.3h2.7v-2.7h2.7v-16h-2.7ZM66.7,42.7v2.7h-2.7v5.3h-2.7v5.3h-2.7v2.7h-2.7v2.7h-2.7v5.3h-26.7v-5.3h-2.7v-2.7h-2.7v-2.7h-2.7v-5.3h-2.7v-5.3h-2.7v-5.3h53.3v2.7Z"/>
  <polygon class="st0" points="50.7 29.3 53.3 29.3 56 29.3 56 26.7 56 24 53.3 24 53.3 21.3 53.3 18.7 53.3 16 56 16 56 13.3 56 10.7 53.3 10.7 50.7 10.7 50.7 13.3 48 13.3 48 16 48 18.7 48 21.3 48 24 48 26.7 50.7 26.7 50.7 29.3"/>
  <polygon class="st0" points="37.3 29.3 40 29.3 42.7 29.3 42.7 26.7 42.7 24 40 24 40 21.3 40 18.7 40 16 42.7 16 42.7 13.3 42.7 10.7 40 10.7 37.3 10.7 34.7 10.7 34.7 13.3 34.7 16 34.7 18.7 34.7 21.3 34.7 24 34.7 26.7 37.3 26.7 37.3 29.3"/>
  <polygon class="st0" points="21.3 24 21.3 26.7 24 26.7 24 29.3 26.7 29.3 29.3 29.3 29.3 26.7 29.3 24 26.7 24 26.7 21.3 26.7 18.7 26.7 16 29.3 16 29.3 13.3 29.3 10.7 26.7 10.7 24 10.7 24 13.3 21.3 13.3 21.3 16 21.3 18.7 18.7 18.7 18.7 21.3 21.3 21.3 21.3 24"/>
</svg>