<?xml version="1.0" encoding="UTF-8"?>
<svg id="_レイヤー_1" data-name="レイヤー_1" xmlns="http://www.w3.org/2000/svg" version="1.1" viewBox="0 0 24 24">
  <!-- Generator: Adobe Illustrator 29.2.1, SVG Export Plug-In . SVG Version: 2.1.0 Build 116)  -->
  <defs>
    <style>
      .st0 {
        fill: #171717;
      }
    </style>
  </defs>
  <path class="st0" d="M12,12.9c-.2,0-.4,0-.6-.3l-5-5c-.3-.3-.3-.9,0-1.2s.9-.3,1.2,0l4.4,4.4,4.4-4.4c.3-.3.9-.3,1.2,0,.3.3.3.9,0,1.2l-5,5c-.2.2-.4.3-.6.3Z"/>
  <path class="st0" d="M12,18.9c-.2,0-.4,0-.6-.3l-5-5c-.3-.3-.3-.9,0-1.2s.9-.3,1.2,0l4.4,4.4,4.4-4.4c.3-.3.9-.3,1.2,0,.3.3.3.9,0,1.2l-5,5c-.2.2-.4.3-.6.3Z"/>
</svg>