<?xml version="1.0" encoding="UTF-8"?>
<svg id="_レイヤー_1" xmlns="http://www.w3.org/2000/svg" version="1.1" viewBox="0 0 32 32">
  <!-- Generator: Adobe Illustrator 29.1.0, SVG Export Plug-In . SVG Version: 2.1.0 Build 142)  -->
  <defs>
    <style>
      .st0 {
        fill: #62639c;
      }
    </style>
  </defs>
  <polygon class="st0" points="28.8 10.7 28.8 9.6 28.8 8.5 27.8 8.5 27.7 8.5 26.7 8.5 26.7 7.5 25.6 7.5 24.6 7.5 24.5 7.5 23.5 7.5 22.4 7.5 21.4 7.5 21.3 7.5 20.3 7.5 19.2 7.5 18.2 7.5 18.1 7.5 17.1 7.5 16 7.5 15 7.5 15 6.4 13.9 6.4 13.9 5.3 12.8 5.3 12.8 4.3 11.8 4.3 11.7 4.3 10.7 4.3 9.6 4.3 8.6 4.3 8.5 4.3 7.5 4.3 6.4 4.3 5.3 4.3 5.3 5.3 4.3 5.3 3.2 5.3 3.2 6.4 3.2 7.5 2.1 7.5 2.1 8.5 2.1 8.6 2.1 9.6 2.1 10.7 2.1 11.7 2.1 11.8 2.1 12.8 2.1 13.9 2.1 14.9 2.1 15 2.1 16 2.1 17.1 2.1 18.1 2.1 18.2 2.1 19.2 2.1 20.3 2.1 21.3 2.1 21.4 2.1 22.4 2.1 23.5 2.1 24.6 3.2 24.6 3.2 25.6 3.2 26.7 4.3 26.7 5.3 26.7 5.3 27.8 6.4 27.8 7.5 27.8 8.5 27.8 8.6 27.8 9.6 27.8 10.7 27.8 11.7 27.8 11.8 27.8 12.8 27.8 13.9 27.8 14.9 27.8 15 27.8 16 27.8 17.1 27.8 18.1 27.8 18.2 27.8 19.2 27.8 20.3 27.8 21.3 27.8 21.4 27.8 22.4 27.8 23.5 27.8 24.5 27.8 24.6 27.8 25.6 27.8 26.7 27.8 26.7 26.7 27.7 26.7 27.8 26.7 28.8 26.7 28.8 25.6 28.8 24.6 29.9 24.6 29.9 23.5 29.9 22.4 29.9 21.4 29.9 21.3 29.9 20.3 29.9 19.2 29.9 18.2 29.9 18.1 29.9 17.1 29.9 16 29.9 15 29.9 14.9 29.9 13.9 29.9 12.8 29.9 11.8 29.9 11.7 29.9 10.7 28.8 10.7"/>
</svg>