<?xml version="1.0" encoding="UTF-8"?>
<svg id="_レイヤー_1" data-name="レイヤー_1" xmlns="http://www.w3.org/2000/svg" version="1.1" viewBox="0 0 32 32">
  <!-- Generator: Adobe Illustrator 29.1.0, SVG Export Plug-In . SVG Version: 2.1.0 Build 142)  -->
  <defs>
    <style>
      .st0 {
        fill: #fdfdfd;
      }
    </style>
  </defs>
  <path class="st0" d="M26.7,4.3h-2.1v1.1h-1.1v2.1h-2.1v1.1h-1.1v1.1h-1.1v1.1h-1.1v1.1h-1.1v-2.1h-1.1v-1.1h-1.1v-1.1h-1.1v-1.1h-1.1v-1.1h-1.1v-1.1h-7.5v3.2h2.1v2.1h1.1v2.1h1.1v2.1h1.1v1.1h1.1v1.1h1.1v2.1h-1.1v1.1h-1.1v1.1h-1.1v1.1h-1.1v2.1h-2.1v1.1h-1.1v3.2h3.2v-2.1h1.1v-1.1h1.1v-1.1h2.1v-1.1h1.1v-1.1h1.1v-1.1h1.1v2.1h1.1v1.1h1.1v1.1h1.1v1.1h1.1v1.1h1.1v1.1h7.5v-3.2h-1.1v-1.1h-1.1v-1.1h-1.1v-1.1h-1.1v-3.2h-1.1v-1.1h-1.1v-1.1h-1.1v-2.1h1.1v-1.1h1.1v-1.1h1.1v-2.1h1.1v-1.1h1.1v-1.1h2.1v-3.2h-1.1ZM22.4,22.4v1.1h1.1v1.1h-2.1v-1.1h-1.1v-1.1h-1.1v-1.1h-1.1v-2.1h-1.1v-1.1h-1.1v-1.1h-1.1v-2.1h-1.1v-1.1h-1.1v-2.1h-1.1v-1.1h-1.1v-1.1h-1.1v-2.1h1.1v1.1h1.1v1.1h1.1v1.1h1.1v2.1h1.1v1.1h1.1v1.1h1.1v2.1h1.1v1.1h1.1v2.1h1.1v1.1h1.1v1.1h1.1Z"/>
</svg>